<mxfile host="app.diagrams.net" agent="Mozilla/5.0 (Windows NT 10.0; Win64; x64) AppleWebKit/537.36 (KHTML, like Gecko) Chrome/127.0.0.0 Safari/537.36 Edg/127.0.0.0" version="24.7.7">
  <diagram id="C5RBs43oDa-KdzZeNtuy" name="Page-1">
    <mxGraphModel dx="969" dy="584" grid="1" gridSize="10" guides="1" tooltips="1" connect="1" arrows="1" fold="1" page="1" pageScale="1" pageWidth="827" pageHeight="1169" math="0" shadow="0">
      <root>
        <mxCell id="WIyWlLk6GJQsqaUBKTNV-0" />
        <mxCell id="WIyWlLk6GJQsqaUBKTNV-1" parent="WIyWlLk6GJQsqaUBKTNV-0" />
        <mxCell id="DZL_igqjIlubBcpyFUkd-7" value="" style="rounded=1;whiteSpace=wrap;html=1;" vertex="1" parent="WIyWlLk6GJQsqaUBKTNV-1">
          <mxGeometry x="15" y="80" width="120" height="340" as="geometry" />
        </mxCell>
        <mxCell id="DZL_igqjIlubBcpyFUkd-0" value="API" style="shape=cylinder3;whiteSpace=wrap;html=1;boundedLbl=1;backgroundOutline=1;size=15;" vertex="1" parent="WIyWlLk6GJQsqaUBKTNV-1">
          <mxGeometry x="40" y="110" width="70" height="80" as="geometry" />
        </mxCell>
        <mxCell id="DZL_igqjIlubBcpyFUkd-5" value="webService" style="shape=cylinder3;whiteSpace=wrap;html=1;boundedLbl=1;backgroundOutline=1;size=15;" vertex="1" parent="WIyWlLk6GJQsqaUBKTNV-1">
          <mxGeometry x="40" y="210" width="70" height="80" as="geometry" />
        </mxCell>
        <mxCell id="DZL_igqjIlubBcpyFUkd-6" value="数据库" style="shape=cylinder3;whiteSpace=wrap;html=1;boundedLbl=1;backgroundOutline=1;size=15;" vertex="1" parent="WIyWlLk6GJQsqaUBKTNV-1">
          <mxGeometry x="40" y="310" width="70" height="80" as="geometry" />
        </mxCell>
        <mxCell id="DZL_igqjIlubBcpyFUkd-8" value="&lt;font style=&quot;font-size: 18px;&quot;&gt;外部数据源&lt;/font&gt;" style="text;strokeColor=none;fillColor=none;html=1;fontSize=24;fontStyle=1;verticalAlign=middle;align=center;" vertex="1" parent="WIyWlLk6GJQsqaUBKTNV-1">
          <mxGeometry x="25" y="20" width="100" height="40" as="geometry" />
        </mxCell>
        <mxCell id="DZL_igqjIlubBcpyFUkd-9" value="" style="shape=flexArrow;endArrow=classic;html=1;rounded=0;" edge="1" parent="WIyWlLk6GJQsqaUBKTNV-1">
          <mxGeometry width="50" height="50" relative="1" as="geometry">
            <mxPoint x="150" y="244.5" as="sourcePoint" />
            <mxPoint x="230" y="244.5" as="targetPoint" />
          </mxGeometry>
        </mxCell>
        <mxCell id="DZL_igqjIlubBcpyFUkd-10" value="&lt;pre style=&quot;background-color: rgb(28, 28, 28); color: rgb(246, 246, 246); font-family: &amp;quot;Courier New&amp;quot;, monospace; line-height: 100%;&quot;&gt;&lt;br&gt;&lt;/pre&gt;" style="shape=card;whiteSpace=wrap;html=1;" vertex="1" parent="WIyWlLk6GJQsqaUBKTNV-1">
          <mxGeometry x="250" y="200" width="80" height="100" as="geometry" />
        </mxCell>
        <mxCell id="DZL_igqjIlubBcpyFUkd-11" value="&lt;font style=&quot;font-size: 18px;&quot;&gt;数据源表&lt;/font&gt;&lt;div&gt;&lt;span style=&quot;font-family: Consolas, monospace; font-size: 10.5pt; font-weight: normal; background-color: initial;&quot;&gt;sync_bus_source_data&lt;/span&gt;&lt;/div&gt;" style="text;strokeColor=none;fillColor=none;html=1;fontSize=24;fontStyle=1;verticalAlign=middle;align=center;" vertex="1" parent="WIyWlLk6GJQsqaUBKTNV-1">
          <mxGeometry x="230" y="130" width="100" height="40" as="geometry" />
        </mxCell>
        <mxCell id="DZL_igqjIlubBcpyFUkd-15" value="Icon" style="icon;html=1;image=img/clipart/Gear_128x128.png" vertex="1" parent="WIyWlLk6GJQsqaUBKTNV-1">
          <mxGeometry x="430" y="200" width="106" height="90" as="geometry" />
        </mxCell>
        <mxCell id="DZL_igqjIlubBcpyFUkd-16" value="&lt;span style=&quot;font-size: 18px;&quot;&gt;处理转换&lt;/span&gt;" style="text;strokeColor=none;fillColor=none;html=1;fontSize=24;fontStyle=1;verticalAlign=middle;align=center;" vertex="1" parent="WIyWlLk6GJQsqaUBKTNV-1">
          <mxGeometry x="417" y="150" width="100" height="40" as="geometry" />
        </mxCell>
        <mxCell id="DZL_igqjIlubBcpyFUkd-17" value="" style="strokeWidth=2;html=1;shape=mxgraph.flowchart.database;whiteSpace=wrap;" vertex="1" parent="WIyWlLk6GJQsqaUBKTNV-1">
          <mxGeometry x="660" y="190" width="120" height="110" as="geometry" />
        </mxCell>
        <mxCell id="DZL_igqjIlubBcpyFUkd-19" value="&lt;span style=&quot;font-size: 18px;&quot;&gt;统一用户数据库&lt;/span&gt;" style="text;strokeColor=none;fillColor=none;html=1;fontSize=24;fontStyle=1;verticalAlign=middle;align=center;" vertex="1" parent="WIyWlLk6GJQsqaUBKTNV-1">
          <mxGeometry x="660" y="130" width="100" height="40" as="geometry" />
        </mxCell>
        <mxCell id="DZL_igqjIlubBcpyFUkd-20" value="" style="shape=flexArrow;endArrow=classic;html=1;rounded=0;" edge="1" parent="WIyWlLk6GJQsqaUBKTNV-1">
          <mxGeometry width="50" height="50" relative="1" as="geometry">
            <mxPoint x="334" y="244.5" as="sourcePoint" />
            <mxPoint x="414" y="244.5" as="targetPoint" />
          </mxGeometry>
        </mxCell>
        <mxCell id="DZL_igqjIlubBcpyFUkd-21" value="" style="shape=flexArrow;endArrow=classic;html=1;rounded=0;" edge="1" parent="WIyWlLk6GJQsqaUBKTNV-1">
          <mxGeometry width="50" height="50" relative="1" as="geometry">
            <mxPoint x="550" y="244.5" as="sourcePoint" />
            <mxPoint x="630" y="244.5" as="targetPoint" />
          </mxGeometry>
        </mxCell>
      </root>
    </mxGraphModel>
  </diagram>
</mxfile>
